<svg width="238" height="213" viewBox="0 0 238 213" fill="none" xmlns="http://www.w3.org/2000/svg">
<mask id="mask0_2_5223" style="mask-type:luminance" maskUnits="userSpaceOnUse" x="0" y="0" width="238" height="213">
<path d="M0 212.502H237.74V-0.000312855H0V212.502Z" fill="white"/>
</mask>
<g mask="url(#mask0_2_5223)">
<path d="M177.313 202.767H60.4453C67.448 206.74 74.8853 210.01 82.68 212.504H155.077C162.857 210.01 170.295 206.74 177.313 202.767Z" fill="#410099"/>
</g>
<mask id="mask1_2_5223" style="mask-type:luminance" maskUnits="userSpaceOnUse" x="0" y="0" width="238" height="213">
<path d="M0 212.502H237.74V-0.000312855H0V212.502Z" fill="white"/>
</mask>
<g mask="url(#mask1_2_5223)">
<path d="M208.199 177.683H29.5508C32.4028 180.908 35.3895 183.999 38.5562 186.896H199.179C202.346 183.999 205.362 180.908 208.199 177.683Z" fill="#410099"/>
</g>
<mask id="mask2_2_5223" style="mask-type:luminance" maskUnits="userSpaceOnUse" x="0" y="0" width="238" height="213">
<path d="M0 212.502H237.74V-0.000312855H0V212.502Z" fill="white"/>
</mask>
<g mask="url(#mask2_2_5223)">
<path d="M225.395 152.075H12.3398C13.7292 154.868 15.2225 157.6 16.8198 160.273H220.929C222.528 157.6 224.005 154.868 225.395 152.075Z" fill="#410099"/>
</g>
<mask id="mask3_2_5223" style="mask-type:luminance" maskUnits="userSpaceOnUse" x="0" y="0" width="238" height="213">
<path d="M0 212.502H237.74V-0.000312855H0V212.502Z" fill="white"/>
</mask>
<g mask="url(#mask3_2_5223)">
<path d="M234.626 126.481H3.12891C3.77024 129.243 4.48771 131.976 5.33838 134.664H232.43C233.252 131.976 233.969 129.243 234.626 126.481Z" fill="#410099"/>
</g>
<mask id="mask4_2_5223" style="mask-type:luminance" maskUnits="userSpaceOnUse" x="0" y="0" width="238" height="213">
<path d="M0 212.502H237.74V-0.000312855H0V212.502Z" fill="white"/>
</mask>
<g mask="url(#mask4_2_5223)">
<path d="M237.748 101.383H189.109L193.261 108.551H237.404C237.583 106.176 237.703 103.787 237.748 101.383Z" fill="#410099"/>
</g>
<mask id="mask5_2_5223" style="mask-type:luminance" maskUnits="userSpaceOnUse" x="0" y="0" width="238" height="213">
<path d="M0 212.502H237.74V-0.000312855H0V212.502Z" fill="white"/>
</mask>
<g mask="url(#mask5_2_5223)">
<path d="M48.6442 101.383H-0.0078125C0.0361875 103.787 0.17078 106.176 0.349447 108.551H44.5081L48.6442 101.383Z" fill="#410099"/>
</g>
<mask id="mask6_2_5223" style="mask-type:luminance" maskUnits="userSpaceOnUse" x="0" y="0" width="238" height="213">
<path d="M0 212.502H237.74V-0.000312855H0V212.502Z" fill="white"/>
</mask>
<g mask="url(#mask6_2_5223)">
<path d="M63.4152 75.7751H2.26318C1.86052 77.8061 1.50179 79.852 1.20312 81.9277H59.8765L63.4152 75.7751Z" fill="#410099"/>
</g>
<mask id="mask7_2_5223" style="mask-type:luminance" maskUnits="userSpaceOnUse" x="0" y="0" width="238" height="213">
<path d="M0 212.502H237.74V-0.000312855H0V212.502Z" fill="white"/>
</mask>
<g mask="url(#mask7_2_5223)">
<path d="M235.484 75.7751H174.332L177.885 81.9277H236.529C236.245 79.852 235.887 77.8061 235.484 75.7751Z" fill="#410099"/>
</g>
<mask id="mask8_2_5223" style="mask-type:luminance" maskUnits="userSpaceOnUse" x="0" y="0" width="238" height="213">
<path d="M0 212.502H237.74V-0.000312855H0V212.502Z" fill="white"/>
</mask>
<g mask="url(#mask8_2_5223)">
<path d="M227.45 50.6908H159.848L163.148 56.4102H229.84C229.078 54.4688 228.302 52.5724 227.45 50.6908Z" fill="#410099"/>
</g>
<mask id="mask9_2_5223" style="mask-type:luminance" maskUnits="userSpaceOnUse" x="0" y="0" width="238" height="213">
<path d="M0 212.502H237.74V-0.000312855H0V212.502Z" fill="white"/>
</mask>
<g mask="url(#mask9_2_5223)">
<path d="M77.9139 50.6908H10.2965C9.45922 52.5724 8.65387 54.4688 7.92188 56.4102H74.5993L77.9139 50.6908Z" fill="#410099"/>
</g>
<mask id="mask10_2_5223" style="mask-type:luminance" maskUnits="userSpaceOnUse" x="0" y="0" width="238" height="213">
<path d="M0 212.502H237.74V-0.000312855H0V212.502Z" fill="white"/>
</mask>
<g mask="url(#mask10_2_5223)">
<path d="M211.844 25.082H145.062L148.033 30.2041H215.712C214.472 28.4718 213.188 26.7546 211.844 25.082Z" fill="#410099"/>
</g>
<mask id="mask11_2_5223" style="mask-type:luminance" maskUnits="userSpaceOnUse" x="0" y="0" width="238" height="213">
<path d="M0 212.502H237.74V-0.000312855H0V212.502Z" fill="white"/>
</mask>
<g mask="url(#mask11_2_5223)">
<path d="M92.6846 25.082H25.8885C24.5592 26.7546 23.2898 28.4718 22.0352 30.2041H89.7285L92.6846 25.082Z" fill="#410099"/>
</g>
<mask id="mask12_2_5223" style="mask-type:luminance" maskUnits="userSpaceOnUse" x="0" y="0" width="238" height="213">
<path d="M0 212.502H237.74V-0.000312855H0V212.502Z" fill="white"/>
</mask>
<g mask="url(#mask12_2_5223)">
<path d="M107.165 -0.000650799H53.3009C51.3143 1.31348 49.3583 2.67244 47.4609 4.07617H104.806L107.165 -0.000650799Z" fill="#410099"/>
</g>
<mask id="mask13_2_5223" style="mask-type:luminance" maskUnits="userSpaceOnUse" x="0" y="0" width="238" height="213">
<path d="M0 212.502H237.74V-0.000312855H0V212.502Z" fill="white"/>
</mask>
<g mask="url(#mask13_2_5223)">
<path d="M184.443 -0.000650799H130.594L132.954 4.07617H190.283C188.386 2.67244 186.43 1.31348 184.443 -0.000650799Z" fill="#410099"/>
</g>
</svg>
