<svg width="760" height="226" viewBox="0 0 760 226" fill="none" xmlns="http://www.w3.org/2000/svg">
<mask id="mask0_6_5523" style="mask-type:luminance" maskUnits="userSpaceOnUse" x="0" y="0" width="760" height="226">
<path d="M0 225.374H760V0.583356H0V225.374Z" fill="white"/>
</mask>
<g mask="url(#mask0_6_5523)">
<path d="M372.29 86.921C364.125 94.4571 355.967 94.7682 339.327 96.0253L322.058 97.2824C307.303 98.222 299.45 99.7964 293.488 103.25C288.46 106.387 283.127 112.037 283.127 121.459C283.127 129.306 286.892 135.585 291.92 139.35C299.139 145 309.189 145.635 316.718 145.635C327.715 145.635 342.463 143.749 352.513 136.842C371.033 123.967 372.29 97.2824 372.29 89.7463V86.921ZM249.218 54.5865C248.907 37.6287 256.125 26.3278 263.033 19.4265C279.356 3.0974 306.364 0.58316 330.534 0.58316C349.999 0.58316 381.077 3.72589 396.777 20.0489C410.592 34.175 409.024 50.8152 409.024 62.7447V124.284C409.024 132.442 409.964 137.153 412.161 139.667C413.1 140.918 415.614 143.121 420.325 143.121C422.839 143.121 424.718 142.803 425.976 142.181V165.723C420.008 166.98 414.357 167.608 407.761 167.608C401.799 167.608 391.749 167.291 385.159 162.269C380.454 158.815 376.372 151.908 375.426 144.061C369.147 152.536 359.725 160.701 349.053 164.783C340.895 167.919 328.959 170.116 309.5 170.116C296.942 170.116 277.787 169.494 263.661 159.761C254.246 153.165 244.824 140.918 244.824 122.398C244.824 107.955 250.792 98.2219 256.436 92.5716C260.208 88.4955 269.312 81.2706 286.581 77.5057C296.624 75.3027 307.932 74.6805 321.118 73.4235L339.009 71.8488C353.77 70.5982 362.875 69.0301 367.896 64.3193C370.722 61.8051 372.918 57.7228 372.918 52.0722C372.918 45.1648 370.093 37.3177 360.049 31.6672C350.628 26.6389 337.759 25.6992 330.534 25.6992C320.172 25.6992 306.986 26.9563 298.199 32.2956C287.526 38.5746 285.641 47.6788 285.641 54.5865H249.218Z" fill="white"/>
<path d="M523.294 166.353H486.56L430.988 6.86345H468.351L507.904 130.875L548.093 6.86345H581.69L621.873 130.875L661.432 6.86345H698.794L643.224 166.353H606.8L565.051 42.0233L523.294 166.353Z" fill="white"/>
<path d="M760 6.86313V179.539C760 189.583 758.744 204.026 748.693 214.07C738.02 224.749 722.638 225.371 713.222 225.371C705.68 225.371 699.718 224.749 692.5 223.174V198.058C695.635 198.687 698.778 199.004 702.232 199.004C706.626 199.004 712.904 198.687 717.616 193.982C723.577 188.014 723.577 176.707 723.577 167.292V6.86313H760Z" fill="white"/>
<path d="M140.789 161.605H47.9883C53.5498 164.747 59.4542 167.35 65.6507 169.331H123.127C129.317 167.35 135.228 164.747 140.789 161.605Z" fill="white"/>
<path d="M165.314 141.68H23.4688C25.7226 144.239 28.0971 146.696 30.6111 149H158.166C160.686 146.696 163.061 144.239 165.314 141.68Z" fill="white"/>
<path d="M178.978 121.347H9.80078C10.9055 123.569 12.0801 125.74 13.3498 127.854H175.423C176.699 125.74 177.874 123.569 178.978 121.347Z" fill="white"/>
<path d="M186.301 101.018H2.47656C2.99068 103.215 3.56215 105.386 4.22879 107.525H184.555C185.221 105.386 185.786 103.215 186.301 101.018Z" fill="white"/>
<path d="M188.782 81.0937H150.168L153.457 86.7822H188.508C188.654 84.903 188.75 83.0047 188.782 81.0937Z" fill="white"/>
<path d="M38.6265 81.0937H0C0.0318331 83.0047 0.127018 84.903 0.273049 86.7822H35.3377L38.6265 81.0937Z" fill="white"/>
<path d="M50.3613 60.7634H1.79895C1.47521 62.376 1.19582 64.0012 0.960938 65.6455H47.5486L50.3613 60.7634Z" fill="white"/>
<path d="M186.986 60.7634H138.43L141.242 65.6455H187.817C187.582 64.0012 187.303 62.376 186.986 60.7634Z" fill="white"/>
<path d="M180.609 40.8404H126.93L129.552 45.3799H182.501C181.911 43.8499 181.276 42.3324 180.609 40.8404Z" fill="white"/>
<path d="M61.8628 40.8404H8.17075C7.50411 42.3324 6.87561 43.8499 6.28516 45.3799H59.2408L61.8628 40.8404Z" fill="white"/>
<path d="M168.223 20.509H115.191L117.541 24.5723H171.29C170.299 23.1881 169.284 21.8296 168.223 20.509Z" fill="white"/>
<path d="M73.5944 20.509H20.5563C19.5024 21.8296 18.4801 23.1881 17.4961 24.5723H71.2454L73.5944 20.509Z" fill="white"/>
<path d="M85.0942 0.58636H42.3222C40.7475 1.62758 39.1985 2.7005 37.6875 3.83691H83.2148L85.0942 0.58636Z" fill="white"/>
<path d="M146.46 0.58636H103.688L105.567 3.83691H151.094C149.59 2.7005 148.041 1.62758 146.46 0.58636Z" fill="white"/>
</g>
</svg>
