<svg width="768" height="228" viewBox="0 0 768 228" fill="none" xmlns="http://www.w3.org/2000/svg">
<mask id="mask0_6_5500" style="mask-type:luminance" maskUnits="userSpaceOnUse" x="0" y="0" width="768" height="228">
<path d="M0 227.152H768V0.00011818H0V227.152Z" fill="white"/>
</mask>
<g mask="url(#mask0_6_5500)">
<path d="M376.215 87.2414C367.968 94.8578 359.721 95.1681 342.897 96.4392L325.452 97.7102C310.54 98.661 302.613 100.252 296.578 103.735C291.504 106.908 286.109 112.623 286.109 122.141C286.109 130.068 289.912 136.413 294.997 140.226C302.283 145.931 312.441 146.572 320.058 146.572C331.157 146.572 346.07 144.66 356.228 137.684C374.944 124.683 376.215 97.7101 376.215 90.0937V87.2414ZM251.84 54.5636C251.53 37.4292 258.826 26.0095 265.802 19.0337C282.296 2.52964 309.589 -0.00239001 334.02 -0.00239001C353.686 -0.00239001 385.093 3.17021 400.956 19.6642C414.908 33.9463 413.327 50.7505 413.327 62.8108V124.993C413.327 133.24 414.288 138.004 416.499 140.537C417.45 141.808 419.992 144.029 424.756 144.029C427.299 144.029 429.19 143.719 430.461 143.079V166.879C424.426 168.14 418.721 168.77 412.056 168.77C406.03 168.77 395.882 168.46 389.216 163.386C384.462 159.893 380.339 152.917 379.378 144.98C373.043 153.548 363.515 161.794 352.725 165.918C344.478 169.091 332.428 171.312 312.762 171.312C300.071 171.312 280.714 170.682 266.442 160.844C256.924 154.178 247.406 141.808 247.406 123.092C247.406 108.499 253.431 98.661 259.146 92.9563C262.949 88.8327 272.157 81.5266 289.602 77.7234C299.751 75.5014 311.17 74.8708 324.501 73.5997L342.587 72.0185C357.489 70.7474 366.697 69.156 371.772 64.402C374.624 61.8599 376.836 57.7364 376.836 52.0215C376.836 45.0456 373.983 37.1189 363.845 31.4041C354.317 26.3298 341.316 25.3789 334.02 25.3789C323.541 25.3789 310.219 26.6401 301.342 32.0347C290.553 38.3801 288.651 47.5878 288.651 54.5636H251.84Z" fill="#231F20"/>
<path d="M528.804 167.511H491.682L435.535 6.34445H473.278L513.251 131.661L553.865 6.34445H587.814L628.419 131.661L668.392 6.34445H706.154L649.986 167.511H613.195L571 41.8744L528.804 167.511Z" fill="#231F20"/>
<path d="M767.997 6.34337V180.831C767.997 190.99 766.726 205.582 756.568 215.731C745.788 226.52 730.246 227.15 720.726 227.15C713.111 227.15 707.086 226.52 699.789 224.928V199.547C702.962 200.187 706.124 200.498 709.627 200.498C714.062 200.498 720.406 200.187 725.171 195.423C731.195 189.398 731.195 177.979 731.195 168.461V6.34337H767.997Z" fill="#231F20"/>
<path d="M142.272 162.706H48.4922C54.1169 165.889 60.082 168.521 66.3373 170.513H124.426C130.682 168.521 136.647 165.889 142.272 162.706Z" fill="#410099"/>
<path d="M167.064 142.577H23.7227C25.9946 145.17 28.4067 147.642 30.9388 149.974H159.838C162.38 147.642 164.782 145.17 167.064 142.577Z" fill="#410099"/>
<path d="M180.865 122.033H9.91016C11.0211 124.275 12.2121 126.467 13.4932 128.608H177.282C178.563 126.467 179.754 124.275 180.865 122.033Z" fill="#410099"/>
<path d="M188.261 101.488H2.50391C3.02438 103.71 3.60481 105.902 4.27534 108.063H186.5C187.17 105.902 187.741 103.71 188.261 101.488Z" fill="#410099"/>
<path d="M190.773 81.3536H151.75L155.073 87.1084H190.493C190.643 85.1969 190.733 83.2852 190.773 81.3536Z" fill="#410099"/>
<path d="M39.033 81.3536H0C0.0399761 83.2852 0.130051 85.1969 0.280117 87.1084H35.7101L39.033 81.3536Z" fill="#410099"/>
<path d="M50.8928 60.8081H1.8212C1.49093 62.4394 1.21064 64.0808 0.980469 65.7422H48.0504L50.8928 60.8081Z" fill="#410099"/>
<path d="M188.952 60.8081H139.891L142.733 65.7422H189.803C189.563 64.0808 189.272 62.4394 188.952 60.8081Z" fill="#410099"/>
<path d="M182.512 40.674H128.266L130.918 45.2578H184.413C183.823 43.7165 183.182 42.1852 182.512 40.674Z" fill="#410099"/>
<path d="M62.5092 40.674H8.2632C7.58267 42.1852 6.94215 43.7165 6.35156 45.2578H59.8569L62.5092 40.674Z" fill="#410099"/>
<path d="M169.995 20.1297H116.41L118.782 24.2432H173.098C172.097 22.842 171.056 21.4707 169.995 20.1297Z" fill="#410099"/>
<path d="M74.3737 20.1297H20.7783C19.7074 21.4707 18.6766 22.842 17.6758 24.2432H72.0017L74.3737 20.1297Z" fill="#410099"/>
<path d="M85.9964 -0.00371978H42.7699C41.1685 1.04721 39.6072 2.13819 38.0859 3.28906H84.0948L85.9964 -0.00371978Z" fill="#410099"/>
<path d="M148.002 -0.00371978H104.785L106.677 3.28906H152.686C151.154 2.13819 149.593 1.04721 148.002 -0.00371978Z" fill="#410099"/>
</g>
</svg>
