<svg width="1062" height="1062" viewBox="0 0 1062 1062" fill="none" xmlns="http://www.w3.org/2000/svg">
<mask id="mask0_2_4900" style="mask-type:luminance" maskUnits="userSpaceOnUse" x="0" y="0" width="1062" height="1062">
<path d="M0 530.736C0 823.855 237.617 1061.47 530.735 1061.47C823.852 1061.47 1061.47 823.855 1061.47 530.736C1061.47 237.619 823.852 -3.16344e-05 530.735 -3.16344e-05C237.617 -3.16344e-05 0 237.619 0 530.736Z" fill="white"/>
</mask>
<g mask="url(#mask0_2_4900)">
<mask id="mask1_2_4900" style="mask-type:luminance" maskUnits="userSpaceOnUse" x="-249" y="-23" width="1010" height="855">
<path d="M-248.105 831.498H760.733V-22.9126H-248.105V831.498Z" fill="white"/>
</mask>
<g mask="url(#mask1_2_4900)">
<path d="M-248.105 18.0781H1340.54" stroke="#563085" stroke-width="0.544024" stroke-miterlimit="10"/>
</g>
</g>
<mask id="mask2_2_4900" style="mask-type:luminance" maskUnits="userSpaceOnUse" x="0" y="0" width="1062" height="1062">
<path d="M0 530.736C0 823.855 237.617 1061.47 530.735 1061.47C823.852 1061.47 1061.47 823.855 1061.47 530.736C1061.47 237.619 823.852 -3.16344e-05 530.735 -3.16344e-05C237.617 -3.16344e-05 0 237.619 0 530.736Z" fill="white"/>
</mask>
<g mask="url(#mask2_2_4900)">
<path d="M-248.102 58.8486H1340.55" stroke="#533388" stroke-width="0.651074" stroke-miterlimit="10"/>
</g>
<mask id="mask3_2_4900" style="mask-type:luminance" maskUnits="userSpaceOnUse" x="0" y="0" width="1062" height="1062">
<path d="M0 530.736C0 823.855 237.617 1061.47 530.735 1061.47C823.852 1061.47 1061.47 823.855 1061.47 530.736C1061.47 237.619 823.852 -3.16344e-05 530.735 -3.16344e-05C237.617 -3.16344e-05 0 237.619 0 530.736Z" fill="white"/>
</mask>
<g mask="url(#mask3_2_4900)">
<path d="M-248.102 99.6182H1340.55" stroke="#50378B" stroke-width="0.756369" stroke-miterlimit="10"/>
</g>
<mask id="mask4_2_4900" style="mask-type:luminance" maskUnits="userSpaceOnUse" x="0" y="0" width="1062" height="1062">
<path d="M0 530.736C0 823.855 237.617 1061.47 530.735 1061.47C823.852 1061.47 1061.47 823.855 1061.47 530.736C1061.47 237.619 823.852 -3.16344e-05 530.735 -3.16344e-05C237.617 -3.16344e-05 0 237.619 0 530.736Z" fill="white"/>
</mask>
<g mask="url(#mask4_2_4900)">
<path d="M-248.102 140.389H1340.55" stroke="#4D3B8E" stroke-width="0.861664" stroke-miterlimit="10"/>
</g>
<mask id="mask5_2_4900" style="mask-type:luminance" maskUnits="userSpaceOnUse" x="0" y="0" width="1062" height="1062">
<path d="M0 530.736C0 823.855 237.617 1061.47 530.735 1061.47C823.852 1061.47 1061.47 823.855 1061.47 530.736C1061.47 237.619 823.852 -3.16344e-05 530.735 -3.16344e-05C237.617 -3.16344e-05 0 237.619 0 530.736Z" fill="white"/>
</mask>
<g mask="url(#mask5_2_4900)">
<path d="M-248.102 181.159H1340.55" stroke="#4A3F92" stroke-width="0.968714" stroke-miterlimit="10"/>
</g>
<mask id="mask6_2_4900" style="mask-type:luminance" maskUnits="userSpaceOnUse" x="0" y="0" width="1062" height="1062">
<path d="M0 530.736C0 823.855 237.617 1061.47 530.735 1061.47C823.852 1061.47 1061.47 823.855 1061.47 530.736C1061.47 237.619 823.852 -3.16344e-05 530.735 -3.16344e-05C237.617 -3.16344e-05 0 237.619 0 530.736Z" fill="white"/>
</mask>
<g mask="url(#mask6_2_4900)">
<path d="M-248.102 221.929H1340.55" stroke="#474395" stroke-width="1.07401" stroke-miterlimit="10"/>
</g>
<mask id="mask7_2_4900" style="mask-type:luminance" maskUnits="userSpaceOnUse" x="0" y="0" width="1062" height="1062">
<path d="M0 530.736C0 823.855 237.617 1061.47 530.735 1061.47C823.852 1061.47 1061.47 823.855 1061.47 530.736C1061.47 237.619 823.852 -3.16344e-05 530.735 -3.16344e-05C237.617 -3.16344e-05 0 237.619 0 530.736Z" fill="white"/>
</mask>
<g mask="url(#mask7_2_4900)">
<path d="M-248.102 262.7H1340.55" stroke="#444698" stroke-width="1.1793" stroke-miterlimit="10"/>
</g>
<mask id="mask8_2_4900" style="mask-type:luminance" maskUnits="userSpaceOnUse" x="0" y="0" width="1062" height="1062">
<path d="M0 530.736C0 823.855 237.617 1061.47 530.735 1061.47C823.852 1061.47 1061.47 823.855 1061.47 530.736C1061.47 237.619 823.852 -3.16344e-05 530.735 -3.16344e-05C237.617 -3.16344e-05 0 237.619 0 530.736Z" fill="white"/>
</mask>
<g mask="url(#mask8_2_4900)">
<path d="M-248.102 303.47H1340.55" stroke="#404A9B" stroke-width="1.28635" stroke-miterlimit="10"/>
</g>
<mask id="mask9_2_4900" style="mask-type:luminance" maskUnits="userSpaceOnUse" x="0" y="0" width="1062" height="1062">
<path d="M0 530.736C0 823.855 237.617 1061.47 530.735 1061.47C823.852 1061.47 1061.47 823.855 1061.47 530.736C1061.47 237.619 823.852 -3.16344e-05 530.735 -3.16344e-05C237.617 -3.16344e-05 0 237.619 0 530.736Z" fill="white"/>
</mask>
<g mask="url(#mask9_2_4900)">
<path d="M-248.102 344.24H1340.55" stroke="#3D4E9E" stroke-width="1.39165" stroke-miterlimit="10"/>
</g>
<mask id="mask10_2_4900" style="mask-type:luminance" maskUnits="userSpaceOnUse" x="0" y="0" width="1062" height="1062">
<path d="M0 530.736C0 823.855 237.617 1061.47 530.735 1061.47C823.852 1061.47 1061.47 823.855 1061.47 530.736C1061.47 237.619 823.852 -3.16344e-05 530.735 -3.16344e-05C237.617 -3.16344e-05 0 237.619 0 530.736Z" fill="white"/>
</mask>
<g mask="url(#mask10_2_4900)">
<path d="M-248.102 385.011H1340.55" stroke="#3A52A2" stroke-width="1.49694" stroke-miterlimit="10"/>
</g>
<mask id="mask11_2_4900" style="mask-type:luminance" maskUnits="userSpaceOnUse" x="0" y="0" width="1062" height="1062">
<path d="M0 530.736C0 823.855 237.617 1061.47 530.735 1061.47C823.852 1061.47 1061.47 823.855 1061.47 530.736C1061.47 237.619 823.852 -3.16344e-05 530.735 -3.16344e-05C237.617 -3.16344e-05 0 237.619 0 530.736Z" fill="white"/>
</mask>
<g mask="url(#mask11_2_4900)">
<path d="M-248.102 425.78H1340.55" stroke="#3756A5" stroke-width="1.60399" stroke-miterlimit="10"/>
</g>
<mask id="mask12_2_4900" style="mask-type:luminance" maskUnits="userSpaceOnUse" x="0" y="0" width="1062" height="1062">
<path d="M0 530.736C0 823.855 237.617 1061.47 530.735 1061.47C823.852 1061.47 1061.47 823.855 1061.47 530.736C1061.47 237.619 823.852 -3.16344e-05 530.735 -3.16344e-05C237.617 -3.16344e-05 0 237.619 0 530.736Z" fill="white"/>
</mask>
<g mask="url(#mask12_2_4900)">
<path d="M-248.102 466.551H1340.55" stroke="#3459A8" stroke-width="1.70929" stroke-miterlimit="10"/>
</g>
<mask id="mask13_2_4900" style="mask-type:luminance" maskUnits="userSpaceOnUse" x="0" y="0" width="1062" height="1062">
<path d="M0 530.736C0 823.855 237.617 1061.47 530.735 1061.47C823.852 1061.47 1061.47 823.855 1061.47 530.736C1061.47 237.619 823.852 -3.16344e-05 530.735 -3.16344e-05C237.617 -3.16344e-05 0 237.619 0 530.736Z" fill="white"/>
</mask>
<g mask="url(#mask13_2_4900)">
<path d="M-248.102 507.32H1340.55" stroke="#315DAB" stroke-width="1.81458" stroke-miterlimit="10"/>
</g>
<mask id="mask14_2_4900" style="mask-type:luminance" maskUnits="userSpaceOnUse" x="0" y="0" width="1062" height="1062">
<path d="M0 530.736C0 823.855 237.617 1061.47 530.735 1061.47C823.852 1061.47 1061.47 823.855 1061.47 530.736C1061.47 237.619 823.852 -3.16344e-05 530.735 -3.16344e-05C237.617 -3.16344e-05 0 237.619 0 530.736Z" fill="white"/>
</mask>
<g mask="url(#mask14_2_4900)">
<path d="M-248.102 548.092H1340.55" stroke="#2E61AE" stroke-width="1.92163" stroke-miterlimit="10"/>
</g>
<mask id="mask15_2_4900" style="mask-type:luminance" maskUnits="userSpaceOnUse" x="0" y="0" width="1062" height="1062">
<path d="M0 530.736C0 823.855 237.617 1061.47 530.735 1061.47C823.852 1061.47 1061.47 823.855 1061.47 530.736C1061.47 237.619 823.852 -3.16344e-05 530.735 -3.16344e-05C237.617 -3.16344e-05 0 237.619 0 530.736Z" fill="white"/>
</mask>
<g mask="url(#mask15_2_4900)">
<path d="M-248.102 588.861H1340.55" stroke="#2B65B1" stroke-width="2.02693" stroke-miterlimit="10"/>
</g>
<mask id="mask16_2_4900" style="mask-type:luminance" maskUnits="userSpaceOnUse" x="0" y="0" width="1062" height="1062">
<path d="M0 530.736C0 823.855 237.617 1061.47 530.735 1061.47C823.852 1061.47 1061.47 823.855 1061.47 530.736C1061.47 237.619 823.852 -3.16344e-05 530.735 -3.16344e-05C237.617 -3.16344e-05 0 237.619 0 530.736Z" fill="white"/>
</mask>
<g mask="url(#mask16_2_4900)">
<path d="M-248.102 629.632H1340.55" stroke="#2869B5" stroke-width="2.13398" stroke-miterlimit="10"/>
</g>
<mask id="mask17_2_4900" style="mask-type:luminance" maskUnits="userSpaceOnUse" x="0" y="0" width="1062" height="1062">
<path d="M0 530.736C0 823.855 237.617 1061.47 530.735 1061.47C823.852 1061.47 1061.47 823.855 1061.47 530.736C1061.47 237.619 823.852 -3.16344e-05 530.735 -3.16344e-05C237.617 -3.16344e-05 0 237.619 0 530.736Z" fill="white"/>
</mask>
<g mask="url(#mask17_2_4900)">
<path d="M-248.102 670.402H1340.55" stroke="#256CB8" stroke-width="2.23927" stroke-miterlimit="10"/>
</g>
<mask id="mask18_2_4900" style="mask-type:luminance" maskUnits="userSpaceOnUse" x="0" y="0" width="1062" height="1062">
<path d="M0 530.736C0 823.855 237.617 1061.47 530.735 1061.47C823.852 1061.47 1061.47 823.855 1061.47 530.736C1061.47 237.619 823.852 -3.16344e-05 530.735 -3.16344e-05C237.617 -3.16344e-05 0 237.619 0 530.736Z" fill="white"/>
</mask>
<g mask="url(#mask18_2_4900)">
<path d="M-248.102 711.173H1340.55" stroke="#2270BB" stroke-width="2.34457" stroke-miterlimit="10"/>
</g>
<mask id="mask19_2_4900" style="mask-type:luminance" maskUnits="userSpaceOnUse" x="0" y="0" width="1062" height="1062">
<path d="M0 530.736C0 823.855 237.617 1061.47 530.735 1061.47C823.852 1061.47 1061.47 823.855 1061.47 530.736C1061.47 237.619 823.852 -3.16344e-05 530.735 -3.16344e-05C237.617 -3.16344e-05 0 237.619 0 530.736Z" fill="white"/>
</mask>
<g mask="url(#mask19_2_4900)">
<path d="M-248.102 751.943L1340.55 751.944" stroke="#1F74BE" stroke-width="2.45162" stroke-miterlimit="10"/>
</g>
<mask id="mask20_2_4900" style="mask-type:luminance" maskUnits="userSpaceOnUse" x="0" y="0" width="1062" height="1062">
<path d="M0 530.736C0 823.855 237.617 1061.47 530.735 1061.47C823.852 1061.47 1061.47 823.855 1061.47 530.736C1061.47 237.619 823.852 -3.16344e-05 530.735 -3.16344e-05C237.617 -3.16344e-05 0 237.619 0 530.736Z" fill="white"/>
</mask>
<g mask="url(#mask20_2_4900)">
<path d="M-248.102 792.713H1340.55" stroke="#1C78C1" stroke-width="2.55691" stroke-miterlimit="10"/>
</g>
<mask id="mask21_2_4900" style="mask-type:luminance" maskUnits="userSpaceOnUse" x="0" y="0" width="1062" height="1062">
<path d="M0 530.736C0 823.855 237.617 1061.47 530.735 1061.47C823.852 1061.47 1061.47 823.855 1061.47 530.736C1061.47 237.619 823.852 -3.16344e-05 530.735 -3.16344e-05C237.617 -3.16344e-05 0 237.619 0 530.736Z" fill="white"/>
</mask>
<g mask="url(#mask21_2_4900)">
<path d="M-248.102 833.483L1340.55 833.484" stroke="#197CC4" stroke-width="2.66221" stroke-miterlimit="10"/>
</g>
<mask id="mask22_2_4900" style="mask-type:luminance" maskUnits="userSpaceOnUse" x="0" y="0" width="1062" height="1062">
<path d="M0 530.736C0 823.855 237.617 1061.47 530.735 1061.47C823.852 1061.47 1061.47 823.855 1061.47 530.736C1061.47 237.619 823.852 -3.16344e-05 530.735 -3.16344e-05C237.617 -3.16344e-05 0 237.619 0 530.736Z" fill="white"/>
</mask>
<g mask="url(#mask22_2_4900)">
<path d="M-248.102 874.254H1340.55" stroke="#1580C8" stroke-width="2.76926" stroke-miterlimit="10"/>
</g>
<mask id="mask23_2_4900" style="mask-type:luminance" maskUnits="userSpaceOnUse" x="0" y="0" width="1062" height="1062">
<path d="M0 530.736C0 823.855 237.617 1061.47 530.735 1061.47C823.852 1061.47 1061.47 823.855 1061.47 530.736C1061.47 237.619 823.852 -3.16344e-05 530.735 -3.16344e-05C237.617 -3.16344e-05 0 237.619 0 530.736Z" fill="white"/>
</mask>
<g mask="url(#mask23_2_4900)">
<path d="M-248.105 915.023L1340.55 915.024" stroke="#1283CB" stroke-width="2.87455" stroke-miterlimit="10"/>
</g>
<mask id="mask24_2_4900" style="mask-type:luminance" maskUnits="userSpaceOnUse" x="0" y="0" width="1062" height="1062">
<path d="M0 530.736C0 823.855 237.617 1061.47 530.735 1061.47C823.852 1061.47 1061.47 823.855 1061.47 530.736C1061.47 237.619 823.852 -3.16344e-05 530.735 -3.16344e-05C237.617 -3.16344e-05 0 237.619 0 530.736Z" fill="white"/>
</mask>
<g mask="url(#mask24_2_4900)">
<path d="M-248.105 955.794L1340.55 955.796" stroke="#0F87CE" stroke-width="2.97985" stroke-miterlimit="10"/>
</g>
<mask id="mask25_2_4900" style="mask-type:luminance" maskUnits="userSpaceOnUse" x="0" y="0" width="1062" height="1062">
<path d="M0 530.736C0 823.855 237.617 1061.47 530.735 1061.47C823.852 1061.47 1061.47 823.855 1061.47 530.736C1061.47 237.619 823.852 -3.16344e-05 530.735 -3.16344e-05C237.617 -3.16344e-05 0 237.619 0 530.736Z" fill="white"/>
</mask>
<g mask="url(#mask25_2_4900)">
<path d="M-248.105 996.564H1340.55" stroke="#0C8BD1" stroke-width="3.0869" stroke-miterlimit="10"/>
</g>
<mask id="mask26_2_4900" style="mask-type:luminance" maskUnits="userSpaceOnUse" x="0" y="0" width="1062" height="1062">
<path d="M0 530.736C0 823.855 237.617 1061.47 530.735 1061.47C823.852 1061.47 1061.47 823.855 1061.47 530.736C1061.47 237.619 823.852 0 530.735 0C237.617 0 0 237.619 0 530.736Z" fill="white"/>
</mask>
<g mask="url(#mask26_2_4900)">
<path d="M-248.105 1037.33L1340.55 1037.34" stroke="#098FD4" stroke-width="3.19219" stroke-miterlimit="10"/>
</g>
</svg>
