<svg width="1106" height="1088" viewBox="0 0 1106 1088" fill="none" xmlns="http://www.w3.org/2000/svg">
<mask id="mask0_2_5078" style="mask-type:luminance" maskUnits="userSpaceOnUse" x="0" y="0" width="1106" height="1088">
<path d="M0 543.798C0 844.13 247.574 1087.6 552.971 1087.6C858.368 1087.6 1105.94 844.13 1105.94 543.798C1105.94 243.468 858.368 0.000135264 552.971 0.000135264C247.574 0.000135264 0 243.468 0 543.798Z" fill="white"/>
</mask>
<g mask="url(#mask0_2_5078)">
<mask id="mask1_2_5078" style="mask-type:luminance" maskUnits="userSpaceOnUse" x="-268" y="-29" width="1633" height="1198">
<path d="M-267.121 1168.02H1364.69V-28.2013H-267.121V1168.02Z" fill="white"/>
</mask>
<g mask="url(#mask1_2_5078)">
<path d="M1364.69 1073.73H-267.121" stroke="#410099" stroke-width="0.30512" stroke-miterlimit="10"/>
</g>
</g>
<mask id="mask2_2_5078" style="mask-type:luminance" maskUnits="userSpaceOnUse" x="0" y="0" width="1106" height="1088">
<path d="M0 543.798C0 844.13 247.574 1087.6 552.971 1087.6C858.368 1087.6 1105.94 844.13 1105.94 543.798C1105.94 243.468 858.368 0.000135264 552.971 0.000135264C247.574 0.000135264 0 243.468 0 543.798Z" fill="white"/>
</mask>
<g mask="url(#mask2_2_5078)">
<path d="M1364.69 1042.31L-267.121 1042.3" stroke="#410099" stroke-width="0.40747" stroke-miterlimit="10"/>
</g>
<mask id="mask3_2_5078" style="mask-type:luminance" maskUnits="userSpaceOnUse" x="0" y="0" width="1106" height="1088">
<path d="M0 543.798C0 844.13 247.574 1087.6 552.971 1087.6C858.368 1087.6 1105.94 844.13 1105.94 543.798C1105.94 243.468 858.368 0.000135264 552.971 0.000135264C247.574 0.000135264 0 243.468 0 543.798Z" fill="white"/>
</mask>
<g mask="url(#mask3_2_5078)">
<path d="M1364.69 1010.88H-267.121" stroke="#410099" stroke-width="0.507889" stroke-miterlimit="10"/>
</g>
<mask id="mask4_2_5078" style="mask-type:luminance" maskUnits="userSpaceOnUse" x="0" y="0" width="1106" height="1088">
<path d="M0 543.798C0 844.13 247.574 1087.6 552.971 1087.6C858.368 1087.6 1105.94 844.13 1105.94 543.798C1105.94 243.468 858.368 0.000135264 552.971 0.000135264C247.574 0.000135264 0 243.468 0 543.798Z" fill="white"/>
</mask>
<g mask="url(#mask4_2_5078)">
<path d="M1364.69 979.446H-267.121" stroke="#410099" stroke-width="0.610239" stroke-miterlimit="10"/>
</g>
<mask id="mask5_2_5078" style="mask-type:luminance" maskUnits="userSpaceOnUse" x="0" y="0" width="1106" height="1088">
<path d="M0 543.798C0 844.13 247.574 1087.6 552.971 1087.6C858.368 1087.6 1105.94 844.13 1105.94 543.798C1105.94 243.468 858.368 0.000135264 552.971 0.000135264C247.574 0.000135264 0 243.468 0 543.798Z" fill="white"/>
</mask>
<g mask="url(#mask5_2_5078)">
<path d="M1364.69 948.018L-267.121 948.016" stroke="#410099" stroke-width="0.710658" stroke-miterlimit="10"/>
</g>
<mask id="mask6_2_5078" style="mask-type:luminance" maskUnits="userSpaceOnUse" x="0" y="0" width="1106" height="1088">
<path d="M0 543.798C0 844.13 247.574 1087.6 552.971 1087.6C858.368 1087.6 1105.94 844.13 1105.94 543.798C1105.94 243.468 858.368 0.000135264 552.971 0.000135264C247.574 0.000135264 0 243.468 0 543.798Z" fill="white"/>
</mask>
<g mask="url(#mask6_2_5078)">
<path d="M1364.69 916.588H-267.121" stroke="#410099" stroke-width="0.813009" stroke-miterlimit="10"/>
</g>
<mask id="mask7_2_5078" style="mask-type:luminance" maskUnits="userSpaceOnUse" x="0" y="0" width="1106" height="1088">
<path d="M0 543.798C0 844.13 247.574 1087.6 552.971 1087.6C858.368 1087.6 1105.94 844.13 1105.94 543.798C1105.94 243.468 858.368 0.000135264 552.971 0.000135264C247.574 0.000135264 0 243.468 0 543.798Z" fill="white"/>
</mask>
<g mask="url(#mask7_2_5078)">
<path d="M1364.69 885.16L-267.121 885.158" stroke="#410099" stroke-width="0.915359" stroke-miterlimit="10"/>
</g>
<mask id="mask8_2_5078" style="mask-type:luminance" maskUnits="userSpaceOnUse" x="0" y="0" width="1106" height="1088">
<path d="M0 543.798C0 844.13 247.574 1087.6 552.971 1087.6C858.368 1087.6 1105.94 844.13 1105.94 543.798C1105.94 243.468 858.368 0.000135264 552.971 0.000135264C247.574 0.000135264 0 243.468 0 543.798Z" fill="white"/>
</mask>
<g mask="url(#mask8_2_5078)">
<path d="M1364.69 853.729H-267.121" stroke="#410099" stroke-width="1.01578" stroke-miterlimit="10"/>
</g>
<mask id="mask9_2_5078" style="mask-type:luminance" maskUnits="userSpaceOnUse" x="0" y="0" width="1106" height="1088">
<path d="M0 543.798C0 844.13 247.574 1087.6 552.971 1087.6C858.368 1087.6 1105.94 844.13 1105.94 543.798C1105.94 243.468 858.368 0.000135264 552.971 0.000135264C247.574 0.000135264 0 243.468 0 543.798Z" fill="white"/>
</mask>
<g mask="url(#mask9_2_5078)">
<path d="M1364.69 822.302L-267.121 822.3" stroke="#410099" stroke-width="1.11813" stroke-miterlimit="10"/>
</g>
<mask id="mask10_2_5078" style="mask-type:luminance" maskUnits="userSpaceOnUse" x="0" y="0" width="1106" height="1088">
<path d="M0 543.798C0 844.13 247.574 1087.6 552.971 1087.6C858.368 1087.6 1105.94 844.13 1105.94 543.798C1105.94 243.468 858.368 0.000135264 552.971 0.000135264C247.574 0.000135264 0 243.468 0 543.798Z" fill="white"/>
</mask>
<g mask="url(#mask10_2_5078)">
<path d="M1364.69 790.872H-267.121" stroke="#410099" stroke-width="1.22048" stroke-miterlimit="10"/>
</g>
<mask id="mask11_2_5078" style="mask-type:luminance" maskUnits="userSpaceOnUse" x="0" y="0" width="1106" height="1088">
<path d="M0 543.798C0 844.13 247.574 1087.6 552.971 1087.6C858.368 1087.6 1105.94 844.13 1105.94 543.798C1105.94 243.468 858.368 0.000135264 552.971 0.000135264C247.574 0.000135264 0 243.468 0 543.798Z" fill="white"/>
</mask>
<g mask="url(#mask11_2_5078)">
<path d="M1364.69 759.443L-267.121 759.441" stroke="#410099" stroke-width="1.3209" stroke-miterlimit="10"/>
</g>
<mask id="mask12_2_5078" style="mask-type:luminance" maskUnits="userSpaceOnUse" x="0" y="0" width="1106" height="1088">
<path d="M0 543.798C0 844.13 247.574 1087.6 552.971 1087.6C858.368 1087.6 1105.94 844.13 1105.94 543.798C1105.94 243.468 858.368 0.000135264 552.971 0.000135264C247.574 0.000135264 0 243.468 0 543.798Z" fill="white"/>
</mask>
<g mask="url(#mask12_2_5078)">
<path d="M1364.69 728.014H-267.121" stroke="#410099" stroke-width="1.42325" stroke-miterlimit="10"/>
</g>
<mask id="mask13_2_5078" style="mask-type:luminance" maskUnits="userSpaceOnUse" x="0" y="0" width="1106" height="1088">
<path d="M0 543.798C0 844.13 247.574 1087.6 552.971 1087.6C858.368 1087.6 1105.94 844.13 1105.94 543.798C1105.94 243.468 858.368 0.000135264 552.971 0.000135264C247.574 0.000135264 0 243.468 0 543.798Z" fill="white"/>
</mask>
<g mask="url(#mask13_2_5078)">
<path d="M1364.69 696.585L-267.121 696.583" stroke="#410099" stroke-width="1.52367" stroke-miterlimit="10"/>
</g>
<mask id="mask14_2_5078" style="mask-type:luminance" maskUnits="userSpaceOnUse" x="0" y="0" width="1106" height="1088">
<path d="M0 543.798C0 844.13 247.574 1087.6 552.971 1087.6C858.368 1087.6 1105.94 844.13 1105.94 543.798C1105.94 243.468 858.368 0.000135264 552.971 0.000135264C247.574 0.000135264 0 243.468 0 543.798Z" fill="white"/>
</mask>
<g mask="url(#mask14_2_5078)">
<path d="M1364.69 665.155H-267.121" stroke="#410099" stroke-width="1.62602" stroke-miterlimit="10"/>
</g>
<mask id="mask15_2_5078" style="mask-type:luminance" maskUnits="userSpaceOnUse" x="0" y="0" width="1106" height="1088">
<path d="M0 543.798C0 844.13 247.574 1087.6 552.971 1087.6C858.368 1087.6 1105.94 844.13 1105.94 543.798C1105.94 243.468 858.368 0.000135264 552.971 0.000135264C247.574 0.000135264 0 243.468 0 543.798Z" fill="white"/>
</mask>
<g mask="url(#mask15_2_5078)">
<path d="M1364.69 633.728L-267.121 633.726" stroke="#410099" stroke-width="1.72837" stroke-miterlimit="10"/>
</g>
<mask id="mask16_2_5078" style="mask-type:luminance" maskUnits="userSpaceOnUse" x="0" y="0" width="1106" height="1088">
<path d="M0 543.798C0 844.13 247.574 1087.6 552.971 1087.6C858.368 1087.6 1105.94 844.13 1105.94 543.798C1105.94 243.468 858.368 0.000135264 552.971 0.000135264C247.574 0.000135264 0 243.468 0 543.798Z" fill="white"/>
</mask>
<g mask="url(#mask16_2_5078)">
<path d="M1364.69 602.297H-267.121" stroke="#410099" stroke-width="1.82879" stroke-miterlimit="10"/>
</g>
<mask id="mask17_2_5078" style="mask-type:luminance" maskUnits="userSpaceOnUse" x="0" y="0" width="1106" height="1088">
<path d="M0 543.798C0 844.13 247.574 1087.6 552.971 1087.6C858.368 1087.6 1105.94 844.13 1105.94 543.798C1105.94 243.468 858.368 0.000135264 552.971 0.000135264C247.574 0.000135264 0 243.468 0 543.798Z" fill="white"/>
</mask>
<g mask="url(#mask17_2_5078)">
<path d="M1364.69 570.867H-267.121" stroke="#410099" stroke-width="1.93114" stroke-miterlimit="10"/>
</g>
<mask id="mask18_2_5078" style="mask-type:luminance" maskUnits="userSpaceOnUse" x="0" y="0" width="1106" height="1088">
<path d="M0 543.798C0 844.13 247.574 1087.6 552.971 1087.6C858.368 1087.6 1105.94 844.13 1105.94 543.798C1105.94 243.468 858.368 0.000135264 552.971 0.000135264C247.574 0.000135264 0 243.468 0 543.798Z" fill="white"/>
</mask>
<g mask="url(#mask18_2_5078)">
<path d="M1364.69 539.439H-267.121" stroke="#410099" stroke-width="2.03349" stroke-miterlimit="10"/>
</g>
<mask id="mask19_2_5078" style="mask-type:luminance" maskUnits="userSpaceOnUse" x="0" y="0" width="1106" height="1088">
<path d="M0 543.798C0 844.13 247.574 1087.6 552.971 1087.6C858.368 1087.6 1105.94 844.13 1105.94 543.798C1105.94 243.468 858.368 0.000135264 552.971 0.000135264C247.574 0.000135264 0 243.468 0 543.798Z" fill="white"/>
</mask>
<g mask="url(#mask19_2_5078)">
<path d="M1364.69 508.01H-267.121" stroke="#410099" stroke-width="2.13391" stroke-miterlimit="10"/>
</g>
<mask id="mask20_2_5078" style="mask-type:luminance" maskUnits="userSpaceOnUse" x="0" y="0" width="1106" height="1088">
<path d="M0 543.798C0 844.13 247.574 1087.6 552.971 1087.6C858.368 1087.6 1105.94 844.13 1105.94 543.798C1105.94 243.468 858.368 0.000135264 552.971 0.000135264C247.574 0.000135264 0 243.468 0 543.798Z" fill="white"/>
</mask>
<g mask="url(#mask20_2_5078)">
<path d="M1364.69 476.581H-267.121" stroke="#410099" stroke-width="2.23626" stroke-miterlimit="10"/>
</g>
<mask id="mask21_2_5078" style="mask-type:luminance" maskUnits="userSpaceOnUse" x="0" y="0" width="1106" height="1088">
<path d="M0 543.798C0 844.13 247.574 1087.6 552.971 1087.6C858.368 1087.6 1105.94 844.13 1105.94 543.798C1105.94 243.468 858.368 0.000135264 552.971 0.000135264C247.574 0.000135264 0 243.468 0 543.798Z" fill="white"/>
</mask>
<g mask="url(#mask21_2_5078)">
<path d="M1364.69 445.151H-267.121" stroke="#410099" stroke-width="2.33861" stroke-miterlimit="10"/>
</g>
<mask id="mask22_2_5078" style="mask-type:luminance" maskUnits="userSpaceOnUse" x="0" y="0" width="1106" height="1088">
<path d="M0 543.798C0 844.13 247.574 1087.6 552.971 1087.6C858.368 1087.6 1105.94 844.13 1105.94 543.798C1105.94 243.468 858.368 0.000135264 552.971 0.000135264C247.574 0.000135264 0 243.468 0 543.798Z" fill="white"/>
</mask>
<g mask="url(#mask22_2_5078)">
<path d="M1364.69 413.723H-267.121" stroke="#410099" stroke-width="2.43903" stroke-miterlimit="10"/>
</g>
<mask id="mask23_2_5078" style="mask-type:luminance" maskUnits="userSpaceOnUse" x="0" y="0" width="1106" height="1088">
<path d="M0 543.798C0 844.13 247.574 1087.6 552.971 1087.6C858.368 1087.6 1105.94 844.13 1105.94 543.798C1105.94 243.468 858.368 0.000135264 552.971 0.000135264C247.574 0.000135264 0 243.468 0 543.798Z" fill="white"/>
</mask>
<g mask="url(#mask23_2_5078)">
<path d="M1364.69 382.294H-267.121" stroke="#410099" stroke-width="2.54138" stroke-miterlimit="10"/>
</g>
<mask id="mask24_2_5078" style="mask-type:luminance" maskUnits="userSpaceOnUse" x="0" y="0" width="1106" height="1088">
<path d="M0 543.798C0 844.13 247.574 1087.6 552.971 1087.6C858.368 1087.6 1105.94 844.13 1105.94 543.798C1105.94 243.468 858.368 0.000135264 552.971 0.000135264C247.574 0.000135264 0 243.468 0 543.798Z" fill="white"/>
</mask>
<g mask="url(#mask24_2_5078)">
<path d="M1364.69 350.863H-267.121" stroke="#410099" stroke-width="2.6418" stroke-miterlimit="10"/>
</g>
<mask id="mask25_2_5078" style="mask-type:luminance" maskUnits="userSpaceOnUse" x="0" y="0" width="1106" height="1088">
<path d="M0 543.798C0 844.13 247.574 1087.6 552.971 1087.6C858.368 1087.6 1105.94 844.13 1105.94 543.798C1105.94 243.468 858.368 0.000135264 552.971 0.000135264C247.574 0.000135264 0 243.468 0 543.798Z" fill="white"/>
</mask>
<g mask="url(#mask25_2_5078)">
<path d="M1364.69 319.435H-267.121" stroke="#410099" stroke-width="2.74415" stroke-miterlimit="10"/>
</g>
<mask id="mask26_2_5078" style="mask-type:luminance" maskUnits="userSpaceOnUse" x="0" y="0" width="1106" height="1088">
<path d="M0 543.798C0 844.13 247.574 1087.6 552.971 1087.6C858.368 1087.6 1105.94 844.13 1105.94 543.798C1105.94 243.468 858.368 0.000135264 552.971 0.000135264C247.574 0.000135264 0 243.468 0 543.798Z" fill="white"/>
</mask>
<g mask="url(#mask26_2_5078)">
<path d="M1364.69 288.006H-267.121" stroke="#410099" stroke-width="2.8465" stroke-miterlimit="10"/>
</g>
<mask id="mask27_2_5078" style="mask-type:luminance" maskUnits="userSpaceOnUse" x="0" y="0" width="1106" height="1088">
<path d="M0 543.798C0 844.13 247.574 1087.6 552.971 1087.6C858.368 1087.6 1105.94 844.13 1105.94 543.798C1105.94 243.468 858.368 0.000135264 552.971 0.000135264C247.574 0.000135264 0 243.468 0 543.798Z" fill="white"/>
</mask>
<g mask="url(#mask27_2_5078)">
<path d="M1364.69 256.576H-267.121" stroke="#410099" stroke-width="2.94692" stroke-miterlimit="10"/>
</g>
<mask id="mask28_2_5078" style="mask-type:luminance" maskUnits="userSpaceOnUse" x="0" y="0" width="1106" height="1088">
<path d="M0 543.798C0 844.13 247.574 1087.6 552.971 1087.6C858.368 1087.6 1105.94 844.13 1105.94 543.798C1105.94 243.468 858.368 0.000135264 552.971 0.000135264C247.574 0.000135264 0 243.468 0 543.798Z" fill="white"/>
</mask>
<g mask="url(#mask28_2_5078)">
<path d="M1364.69 225.147H-267.121" stroke="#410099" stroke-width="3.04927" stroke-miterlimit="10"/>
</g>
<mask id="mask29_2_5078" style="mask-type:luminance" maskUnits="userSpaceOnUse" x="0" y="0" width="1106" height="1088">
<path d="M0 543.798C0 844.13 247.574 1087.6 552.971 1087.6C858.368 1087.6 1105.94 844.13 1105.94 543.798C1105.94 243.468 858.368 0.000135264 552.971 0.000135264C247.574 0.000135264 0 243.468 0 543.798Z" fill="white"/>
</mask>
<g mask="url(#mask29_2_5078)">
<path d="M1364.69 193.719H-267.121" stroke="#410099" stroke-width="3.15162" stroke-miterlimit="10"/>
</g>
<mask id="mask30_2_5078" style="mask-type:luminance" maskUnits="userSpaceOnUse" x="0" y="0" width="1106" height="1088">
<path d="M0 543.798C0 844.13 247.574 1087.6 552.971 1087.6C858.368 1087.6 1105.94 844.13 1105.94 543.798C1105.94 243.468 858.368 0.000135264 552.971 0.000135264C247.574 0.000135264 0 243.468 0 543.798Z" fill="white"/>
</mask>
<g mask="url(#mask30_2_5078)">
<path d="M1364.69 162.289H-267.121" stroke="#410099" stroke-width="3.25203" stroke-miterlimit="10"/>
</g>
<mask id="mask31_2_5078" style="mask-type:luminance" maskUnits="userSpaceOnUse" x="0" y="0" width="1106" height="1088">
<path d="M0 543.798C0 844.13 247.574 1087.6 552.971 1087.6C858.368 1087.6 1105.94 844.13 1105.94 543.798C1105.94 243.468 858.368 0.000135264 552.971 0.000135264C247.574 0.000135264 0 243.468 0 543.798Z" fill="white"/>
</mask>
<g mask="url(#mask31_2_5078)">
<path d="M1364.69 130.86H-267.121" stroke="#410099" stroke-width="3.35439" stroke-miterlimit="10"/>
</g>
<mask id="mask32_2_5078" style="mask-type:luminance" maskUnits="userSpaceOnUse" x="0" y="0" width="1106" height="1088">
<path d="M0 543.798C0 844.13 247.574 1087.6 552.971 1087.6C858.368 1087.6 1105.94 844.13 1105.94 543.798C1105.94 243.468 858.368 0.000135264 552.971 0.000135264C247.574 0.000135264 0 243.468 0 543.798Z" fill="white"/>
</mask>
<g mask="url(#mask32_2_5078)">
<path d="M1364.69 99.4307H-267.121" stroke="#410099" stroke-width="3.4548" stroke-miterlimit="10"/>
</g>
<mask id="mask33_2_5078" style="mask-type:luminance" maskUnits="userSpaceOnUse" x="0" y="0" width="1106" height="1088">
<path d="M0 543.798C0 844.13 247.574 1087.6 552.971 1087.6C858.368 1087.6 1105.94 844.13 1105.94 543.798C1105.94 243.468 858.368 0.000135264 552.971 0.000135264C247.574 0.000135264 0 243.468 0 543.798Z" fill="white"/>
</mask>
<g mask="url(#mask33_2_5078)">
<path d="M1364.69 68.002H-267.121" stroke="#410099" stroke-width="3.55715" stroke-miterlimit="10"/>
</g>
<mask id="mask34_2_5078" style="mask-type:luminance" maskUnits="userSpaceOnUse" x="0" y="0" width="1106" height="1088">
<path d="M0 543.798C0 844.13 247.574 1087.6 552.971 1087.6C858.368 1087.6 1105.94 844.13 1105.94 543.798C1105.94 243.468 858.368 0.000135264 552.971 0.000135264C247.574 0.000135264 0 243.468 0 543.798Z" fill="white"/>
</mask>
<g mask="url(#mask34_2_5078)">
<path d="M1364.69 36.5732H-267.121" stroke="#410099" stroke-width="3.6595" stroke-miterlimit="10"/>
</g>
<mask id="mask35_2_5078" style="mask-type:luminance" maskUnits="userSpaceOnUse" x="0" y="0" width="1106" height="1088">
<path d="M0 543.798C0 844.13 247.574 1087.6 552.971 1087.6C858.368 1087.6 1105.94 844.13 1105.94 543.798C1105.94 243.468 858.368 0.000135264 552.971 0.000135264C247.574 0.000135264 0 243.468 0 543.798Z" fill="white"/>
</mask>
<g mask="url(#mask35_2_5078)">
<path d="M1364.69 5.14355H-267.121" stroke="#410099" stroke-width="3.75992" stroke-miterlimit="10"/>
</g>
</svg>
